<?xml version="1.0" standalone="no"?>
<!DOCTYPE svg PUBLIC "-//W3C//DTD SVG 20010904//EN"
 "http://www.w3.org/TR/2001/REC-SVG-20010904/DTD/svg10.dtd">
<svg version="1.0" xmlns="http://www.w3.org/2000/svg"
 width="241.000000pt" height="241.000000pt" viewBox="0 0 241.000000 241.000000"
 preserveAspectRatio="xMidYMid meet">
<metadata>
Created by potrace 1.14, written by Peter Selinger 2001-2017
</metadata>
<g transform="translate(0.000000,241.000000) scale(0.100000,-0.100000)"
fill="#000000" stroke="none">
<path d="M2026 2090 c-151 -59 -201 -245 -101 -375 42 -56 104 -77 248 -84 11
-1 17 -9 17 -26 0 -17 -6 -25 -17 -26 -51 -4 -71 -3 -105 2 -34 6 -69 -3 -57
-15 11 -11 88 -23 134 -20 58 4 85 28 78 68 -8 39 -27 48 -103 52 -111 4 -179
49 -204 135 -37 122 21 230 141 265 91 27 224 9 296 -40 23 -16 39 -21 48 -15
11 7 9 13 -11 29 -79 62 -266 88 -364 50z"/>
<path d="M30 1741 c0 -292 2 -340 15 -345 13 -5 15 37 15 339 0 300 -2 345
-15 345 -13 0 -15 -44 -15 -339z"/>
<path d="M92 1740 c2 -218 7 -340 13 -340 6 0 11 122 13 340 2 299 0 340 -13
340 -13 0 -15 -41 -13 -340z"/>
<path d="M150 1741 c0 -314 5 -374 26 -340 3 6 7 160 7 343 0 300 -2 331 -17
334 -15 3 -16 -26 -16 -337z"/>
<path d="M210 1740 c0 -187 3 -340 8 -341 44 -5 256 -3 265 3 23 14 -7 23 -86
25 -159 3 -159 2 -155 16 3 8 37 12 119 13 136 2 126 1 126 18 0 10 -26 13
-119 13 -110 -1 -140 4 -125 19 4 4 59 7 123 8 83 1 119 5 122 14 5 15 10 14
-123 17 -60 2 -113 4 -116 4 -4 1 -6 112 -7 249 0 302 1 282 -17 282 -13 0
-15 -44 -15 -340z"/>
<path d="M550 1741 c0 -315 5 -374 26 -340 5 9 10 595 5 667 -1 6 -8 12 -16
12 -13 0 -15 -44 -15 -339z"/>
<path d="M610 1741 c0 -314 5 -374 26 -340 5 9 9 551 5 662 -1 9 -8 17 -16 17
-13 0 -15 -44 -15 -339z"/>
<path d="M670 1741 c0 -315 5 -374 26 -340 5 9 9 618 5 672 -1 4 -8 7 -16 7
-13 0 -15 -44 -15 -339z"/>
<path d="M734 1738 l1 -343 175 0 c146 1 175 3 175 15 0 13 -26 15 -155 15
-140 0 -177 6 -165 25 2 4 74 6 159 6 115 -1 157 2 160 11 8 19 0 20 -129 21
-200 1 -195 1 -189 15 3 10 41 13 155 12 145 -1 189 5 162 23 -7 4 -80 7 -163
7 -82 0 -150 2 -151 5 -1 3 -2 29 -4 58 -2 59 -13 53 113 54 43 1 52 4 50 17
-3 13 -18 16 -82 16 -55 0 -81 4 -83 13 -5 12 5 14 115 14 37 1 52 5 52 14 0
15 -1 16 -80 19 -86 4 -90 4 -90 15 0 6 35 10 85 10 69 0 85 3 85 15 0 17 -2
17 -80 17 -85 -1 -87 1 -86 61 l1 52 159 5 c115 4 161 8 164 18 3 9 -33 12
-156 12 -132 0 -161 3 -166 15 -4 12 19 15 156 17 116 2 162 6 165 15 4 10
-35 13 -156 15 -212 4 -214 21 -4 28 115 4 159 8 160 18 2 9 -38 12 -176 12
l-178 0 1 -342z"/>
<path d="M1147 2074 c-19 -19 25 -24 229 -24 192 0 224 2 224 15 0 13 -31 15
-223 15 -123 0 -227 -3 -230 -6z"/>
<path d="M1664 2023 c1 -45 4 -58 16 -58 12 0 15 13 16 58 0 46 -3 57 -16 57
-13 0 -16 -11 -16 -57z"/>
<path d="M1725 2016 c1 -80 -7 -104 -40 -112 -27 -7 -33 -22 -11 -30 20 -8 76
23 77 44 1 9 3 50 4 90 2 62 0 72 -15 72 -14 0 -16 -10 -15 -64z"/>
<path d="M1786 2013 c1 -126 -15 -155 -89 -167 -50 -8 -44 -32 7 -28 85 5 108
40 112 168 3 84 2 94 -14 94 -14 0 -17 -10 -16 -67z"/>
<path d="M2052 2038 c-75 -26 -127 -111 -117 -192 13 -99 70 -145 189 -152
105 -5 126 -21 128 -96 1 -42 -39 -77 -90 -79 -67 -3 -117 3 -151 17 -23 10
-38 11 -45 4 -19 -19 81 -53 160 -53 110 0 168 48 158 131 -10 78 -44 103
-148 107 -117 5 -167 47 -169 145 -2 53 16 87 67 124 23 18 42 21 119 21 79 0
100 -4 145 -26 49 -24 72 -24 56 2 -25 41 -227 73 -302 47z"/>
<path d="M1143 2005 c0 -13 32 -15 229 -15 196 0 228 2 228 15 0 13 -32 15
-228 15 -197 0 -229 -2 -229 -15z"/>
<path d="M2052 1970 c-56 -34 -71 -90 -43 -157 16 -40 45 -55 115 -59 98 -6
121 -13 148 -42 44 -46 53 -113 23 -184 -15 -36 -119 -79 -175 -72 -84 11
-109 17 -148 36 -31 16 -45 19 -53 11 -16 -16 60 -53 137 -68 175 -34 300 47
289 186 -5 51 -20 84 -56 118 -33 32 -55 38 -157 45 -71 5 -89 15 -100 60 -12
43 4 84 41 103 36 18 153 14 200 -8 20 -9 31 -9 39 -1 19 19 -59 45 -147 48
-66 3 -87 0 -113 -16z"/>
<path d="M1147 1954 c-15 -15 8 -24 63 -24 l58 0 0 -266 c0 -146 3 -268 5
-271 22 -22 27 27 27 273 0 227 2 264 15 264 13 0 15 -39 17 -267 2 -170 7
-268 13 -268 6 0 11 98 13 268 2 227 5 267 17 267 12 0 15 -40 17 -267 2 -170
7 -268 13 -268 6 0 11 98 13 268 2 227 5 267 17 267 12 0 15 -40 17 -267 2
-170 7 -268 13 -268 6 0 11 98 13 268 l2 267 60 0 c47 0 60 3 60 15 0 13 -31
15 -223 15 -123 0 -227 -3 -230 -6z"/>
<path d="M2073 1910 c-18 -16 -20 -25 -13 -51 5 -18 12 -34 15 -37 3 -3 42 -8
87 -12 65 -5 92 -12 124 -33 70 -43 103 -141 81 -231 -14 -52 -79 -118 -135
-134 -92 -28 -223 -11 -303 38 -44 27 -59 29 -59 8 0 -14 77 -56 134 -73 65
-19 182 -21 234 -4 111 36 175 132 167 248 -10 129 -103 212 -240 212 -53 0
-67 4 -75 19 -17 31 11 43 92 39 43 -3 74 0 76 6 4 14 -33 23 -104 24 -47 1
-65 -3 -81 -19z"/>
<path d="M320 1045 c-243 -49 -371 -302 -267 -528 70 -154 265 -238 447 -195
l55 13 0 180 c0 153 -2 180 -15 180 -12 0 -15 -14 -16 -65 0 -36 -1 -70 -2
-77 -3 -19 -58 -32 -130 -30 -79 3 -125 29 -148 83 -16 38 -18 102 -5 136 21
55 80 94 156 103 29 3 94 -25 114 -48 16 -21 41 -22 41 -3 0 19 -87 76 -119
78 -105 7 -172 -27 -213 -105 -41 -81 -18 -183 54 -240 30 -24 49 -30 105 -34
37 -3 85 -1 105 5 46 12 62 -3 21 -20 -43 -17 -146 -22 -188 -8 -84 28 -149
120 -146 211 2 128 98 220 227 220 60 0 134 -31 164 -68 20 -25 40 -30 40 -10
0 21 -51 64 -104 88 -171 75 -358 -47 -357 -233 0 -110 66 -201 170 -236 42
-15 134 -15 180 -2 41 11 45 9 28 -14 -10 -13 -32 -19 -92 -23 -98 -6 -170 17
-231 76 -56 53 -77 102 -82 188 -4 61 0 80 21 127 85 184 318 224 468 80 32
-31 49 -35 49 -12 0 14 -57 65 -102 91 -149 86 -361 24 -436 -126 -80 -161
-21 -347 136 -424 49 -24 69 -28 142 -28 47 0 96 2 109 5 14 3 26 0 28 -7 6
-17 -102 -36 -170 -30 -269 24 -403 341 -234 549 48 59 141 113 217 126 103
18 224 -22 302 -100 21 -21 43 -38 48 -38 22 0 7 30 -34 68 -94 87 -214 121
-336 97z"/>
<path d="M1118 1049 c-99 -15 -211 -87 -263 -170 -80 -126 -74 -295 14 -416
16 -22 52 -57 80 -77 248 -182 601 -10 602 293 0 102 -27 172 -96 249 -81 90
-216 138 -337 121z m210 -63 c116 -59 183 -159 190 -286 7 -118 -38 -214 -134
-288 -168 -130 -420 -71 -522 122 -24 45 -27 62 -27 146 0 81 4 103 25 145 41
83 126 155 220 186 14 5 63 7 110 5 69 -2 95 -8 138 -30z"/>
<path d="M1105 986 c-67 -17 -108 -39 -157 -88 -121 -121 -120 -318 2 -436 71
-68 120 -87 225 -87 79 0 96 4 142 27 57 30 116 86 141 133 43 81 43 204 2
286 -64 124 -220 197 -355 165z m189 -50 c62 -29 107 -72 138 -134 33 -67 32
-189 -1 -247 -36 -62 -71 -95 -135 -126 -152 -72 -340 6 -392 164 -23 69 -15
162 19 219 48 83 102 122 192 143 65 15 115 9 179 -19z"/>
<path d="M1117 929 c-57 -13 -91 -34 -134 -83 -150 -171 -18 -432 210 -414
105 9 176 58 217 150 41 92 24 190 -45 267 -61 67 -161 99 -248 80z m154 -47
c137 -55 172 -260 61 -359 -174 -156 -437 6 -371 228 37 122 180 183 310 131z"/>
<path d="M1091 853 c-75 -36 -106 -86 -106 -172 0 -56 4 -72 29 -108 81 -119
273 -107 336 21 81 168 -90 339 -259 259z m158 -28 c56 -25 86 -77 86 -146 0
-62 -17 -94 -69 -133 -39 -30 -143 -30 -182 0 -44 32 -66 68 -71 117 -10 82
42 154 125 176 36 10 68 6 111 -14z"/>
<path d="M1623 1018 c-4 -7 -8 -122 -8 -255 0 -216 1 -243 16 -243 14 0 16 28
16 250 0 138 -3 253 -8 255 -4 3 -11 0 -16 -7z"/>
<path d="M1677 1022 c-1 -4 -3 -117 -2 -252 0 -224 2 -245 18 -248 16 -3 17
15 17 246 0 210 -2 251 -15 255 -8 4 -16 3 -18 -1z"/>
<path d="M1739 1012 c0 -9 -1 -124 -2 -255 -2 -217 -1 -237 15 -237 16 0 17
21 18 249 0 213 -2 250 -15 255 -10 3 -15 -1 -16 -12z"/>
<path d="M1804 1019 c-5 -9 -9 -396 -5 -481 1 -10 8 -18 16 -18 13 0 15 34 15
249 0 230 -5 283 -26 250z"/>
<path d="M589 688 c-1 -7 -2 -88 -3 -180 -1 -155 0 -168 17 -168 16 0 17 13
15 177 -2 130 -6 177 -15 181 -7 2 -14 -2 -14 -10z"/>
<path d="M649 698 c0 -5 -1 -332 0 -345 1 -7 8 -13 16 -13 13 0 15 24 13 177
-2 130 -6 177 -15 181 -7 2 -13 2 -14 0z"/>
<path d="M709 688 c-1 -14 -1 -315 0 -335 1 -7 8 -13 16 -13 13 0 15 24 13
177 -2 130 -6 177 -15 181 -7 2 -13 -2 -14 -10z"/>
<path d="M1616 445 c-5 -13 11 -15 104 -15 91 0 110 3 110 15 0 12 -18 15
-104 15 -83 0 -105 -3 -110 -15z"/>
<path d="M1617 394 c-17 -17 13 -24 109 -24 86 0 104 3 104 15 0 12 -18 15
-103 15 -57 0 -107 -3 -110 -6z"/>
<path d="M1617 334 c-17 -17 13 -24 109 -24 86 0 104 3 104 15 0 12 -18 15
-103 15 -57 0 -107 -3 -110 -6z"/>
</g>
</svg>
